<svg width="363" height="138" viewBox="0 0 363 138" fill="none" xmlns="http://www.w3.org/2000/svg">
<path d="M241.102 84H232.922V69.75H220.805V84H212.578V49.875H220.805V63.4219H232.922V49.875H241.102V84ZM275.227 67.6406C275.227 70.9688 274.609 73.9141 273.375 76.4766C272.141 79.0391 270.383 81.0156 268.102 82.4062C265.836 83.7812 263.25 84.4688 260.344 84.4688C257.438 84.4688 254.859 83.8047 252.609 82.4766C250.359 81.1328 248.602 79.2188 247.336 76.7344C246.086 74.25 245.43 71.3984 245.367 68.1797V66.2578C245.367 62.9141 245.977 59.9688 247.195 57.4219C248.43 54.8594 250.188 52.8828 252.469 51.4922C254.766 50.1016 257.375 49.4062 260.297 49.4062C263.188 49.4062 265.766 50.0938 268.031 51.4688C270.297 52.8438 272.055 54.8047 273.305 57.3516C274.57 59.8828 275.211 62.7891 275.227 66.0703V67.6406ZM266.859 66.2109C266.859 62.8203 266.289 60.25 265.148 58.5C264.023 56.7344 262.406 55.8516 260.297 55.8516C256.172 55.8516 253.992 58.9453 253.758 65.1328L253.734 67.6406C253.734 70.9844 254.289 73.5547 255.398 75.3516C256.508 77.1484 258.156 78.0469 260.344 78.0469C262.422 78.0469 264.023 77.1641 265.148 75.3984C266.273 73.6328 266.844 71.0938 266.859 67.7812V66.2109ZM290.273 49.875L297.891 73.6172L305.484 49.875H316.312V84H308.062V76.0312L308.859 59.7188L300.609 84H295.172L286.898 59.6953L287.695 76.0312V84H279.469V49.875H290.273ZM342.727 69.5391H329.789V77.6719H345.07V84H321.562V49.875H345.117V56.2266H329.789V63.4219H342.727V69.5391Z" fill="black"/>
<path d="M172.414 0.000239245H27.5863H10.3484C4.63437 0.000239245 0 2.8375 0 6.33553V76H27.5863H79.3105H120.69H172.414H200V6.33553C200 2.8375 195.366 0 189.652 0L172.414 0.000239245Z" fill="#495D72"/>
<path d="M172.414 138H27.5863H10.3484C4.63438 138 0 135.536 0 132.498V72H27.5863H79.3105H120.69H172.414H200V132.498C200 135.536 195.366 138 189.652 138H172.414V138Z" fill="#495D72"/>
<path d="M186.086 13.6719H92.9824V124.017H186.086V13.6719Z" fill="#28384C"/>
<path d="M148.155 30.9133H113.672C111.768 30.9133 110.223 29.3684 110.223 27.4649C110.223 25.5613 111.768 24.0164 113.672 24.0164H148.155C150.058 24.0164 151.603 25.5613 151.603 27.4649C151.603 29.3684 150.058 30.9133 148.155 30.9133Z" fill="#DD352E"/>
<path d="M172.293 30.9133H161.948C160.044 30.9133 158.499 29.3684 158.499 27.4649C158.499 25.5613 160.044 24.0164 161.948 24.0164H172.293C174.196 24.0164 175.741 25.5613 175.741 27.4649C175.741 29.3684 174.196 30.9133 172.293 30.9133Z" fill="#366DB6"/>
<path d="M172.293 44.7063H137.81C135.906 44.7063 134.361 43.1613 134.361 41.2578C134.361 39.3543 135.906 37.8094 137.81 37.8094H172.293C174.196 37.8094 175.741 39.3543 175.741 41.2578C175.741 43.1613 174.196 44.7063 172.293 44.7063Z" fill="#75348B"/>
<path d="M124.017 44.7063H113.672C111.768 44.7063 110.223 43.1613 110.223 41.2578C110.223 39.3543 111.768 37.8094 113.672 37.8094H124.017C125.92 37.8094 127.465 39.3543 127.465 41.2578C127.465 43.1613 125.92 44.7063 124.017 44.7063Z" fill="#57ABC1"/>
<path d="M148.155 58.4996H113.672C111.768 58.4996 110.223 56.9547 110.223 55.0512C110.223 53.1476 111.768 51.6027 113.672 51.6027H148.155C150.058 51.6027 151.603 53.1476 151.603 55.0512C151.603 56.9547 150.058 58.4996 148.155 58.4996Z" fill="#25AE88"/>
<path d="M172.293 58.4996H161.948C160.044 58.4996 158.499 56.9547 158.499 55.0512C158.499 53.1476 160.044 51.6027 161.948 51.6027H172.293C174.196 51.6027 175.741 53.1476 175.741 55.0512C175.741 56.9547 174.196 58.4996 172.293 58.4996Z" fill="#F76363"/>
<path d="M172.293 72.2926H137.81C135.906 72.2926 134.361 70.7476 134.361 68.8441C134.361 66.9406 135.906 65.3957 137.81 65.3957H172.293C174.196 65.3957 175.741 66.9406 175.741 68.8441C175.741 70.7476 174.196 72.2926 172.293 72.2926Z" fill="#BF5A45"/>
<path d="M124.017 72.2926H113.672C111.768 72.2926 110.223 70.7476 110.223 68.8441C110.223 66.9406 111.768 65.3957 113.672 65.3957H124.017C125.92 65.3957 127.465 66.9406 127.465 68.8441C127.465 70.7476 125.92 72.2926 124.017 72.2926Z" fill="#F2ECBF"/>
<path d="M172.293 113.672H137.81C135.906 113.672 134.361 112.127 134.361 110.223C134.361 108.32 135.906 106.775 137.81 106.775H172.293C174.196 106.775 175.741 108.32 175.741 110.223C175.741 112.127 174.196 113.672 172.293 113.672Z" fill="#25AE88"/>
<path d="M124.017 113.672H113.672C111.768 113.672 110.223 112.127 110.223 110.223C110.223 108.32 111.768 106.775 113.672 106.775H124.017C125.92 106.775 127.465 108.32 127.465 110.223C127.465 112.127 125.92 113.672 124.017 113.672Z" fill="#DD352E"/>
<path d="M148.155 86.0855H113.672C111.768 86.0855 110.223 84.5406 110.223 82.6371C110.223 80.7336 111.768 79.1887 113.672 79.1887H148.155C150.058 79.1887 151.603 80.7336 151.603 82.6371C151.603 84.5406 150.058 86.0855 148.155 86.0855Z" fill="#75348B"/>
<path d="M172.293 86.0855H161.948C160.044 86.0855 158.499 84.5406 158.499 82.6371C158.499 80.7336 160.044 79.1887 161.948 79.1887H172.293C174.196 79.1887 175.741 80.7336 175.741 82.6371C175.741 84.5406 174.196 86.0855 172.293 86.0855Z" fill="#EBBA16"/>
<path d="M172.293 99.8789H137.81C135.906 99.8789 134.361 98.334 134.361 96.4305C134.361 94.527 135.906 92.9821 137.81 92.9821H172.293C174.196 92.9821 175.741 94.527 175.741 96.4305C175.741 98.334 174.196 99.8789 172.293 99.8789Z" fill="#ED8A19"/>
<path d="M124.017 99.8789H113.672C111.768 99.8789 110.223 98.334 110.223 96.4305C110.223 94.527 111.768 92.9821 113.672 92.9821H124.017C125.92 92.9821 127.465 94.527 127.465 96.4305C127.465 98.334 125.92 99.8789 124.017 99.8789Z" fill="#C5411E"/>
<path d="M99.8789 13.6719H13.6719V124.017H99.8789V13.6719Z" fill="#EBBA16"/>
<path d="M51.5996 113.672C51.0824 113.672 50.5547 113.555 50.0582 113.31C48.3547 112.458 47.6652 110.386 48.5168 108.682L58.8617 87.9926C59.7133 86.2891 61.7895 85.5996 63.4895 86.4512C65.193 87.3028 65.8824 89.3754 65.0309 91.0789L54.6859 111.768C54.0824 112.975 52.8652 113.672 51.5996 113.672Z" fill="white"/>
<path d="M27.4652 103.327C26.5824 103.327 25.6996 102.989 25.0273 102.317C23.6789 100.968 23.6789 98.7891 25.0273 97.441L35.3723 87.0961C36.7172 85.7477 38.9031 85.7477 40.2481 87.0961C41.5965 88.4445 41.5965 90.6238 40.2481 91.9719L29.9031 102.317C29.2305 102.989 28.3481 103.327 27.4652 103.327Z" fill="white"/>
<path d="M37.8098 113.672C36.927 113.672 36.0441 113.334 35.3719 112.662L25.0273 102.317C23.6789 100.968 23.6789 98.7891 25.0273 97.441C26.3723 96.0926 28.5582 96.0926 29.9031 97.441L40.2481 107.786C41.5965 109.134 41.5965 111.314 40.2481 112.662C39.5754 113.334 38.6926 113.672 37.8098 113.672Z" fill="white"/>
<path d="M86.0859 103.327C85.2031 103.327 84.3203 102.989 83.6481 102.317L73.3031 91.9719C71.9547 90.6234 71.9547 88.4442 73.3031 87.0961C74.6481 85.7477 76.834 85.7477 78.1789 87.0961L88.5238 97.441C89.8723 98.7895 89.8723 100.969 88.5238 102.317C87.8512 102.989 86.9688 103.327 86.0859 103.327Z" fill="white"/>
<path d="M75.741 113.672C74.8582 113.672 73.9754 113.334 73.3031 112.662C71.9547 111.313 71.9547 109.134 73.3031 107.786L83.6481 97.441C84.993 96.0926 87.1789 96.0926 88.5238 97.441C89.8723 98.7895 89.8723 100.969 88.5238 102.317L78.1789 112.662C77.5067 113.334 76.6238 113.672 75.741 113.672Z" fill="white"/>
<path d="M58.4996 55.0512C56.5961 55.0512 55.0512 53.5063 55.0512 51.6027V27.4649C55.0512 25.5613 56.5961 24.0164 58.4996 24.0164C60.4031 24.0164 61.9481 25.5613 61.9481 27.4649V51.6027C61.9481 53.5063 60.4031 55.0512 58.4996 55.0512Z" fill="white"/>
<path d="M58.4996 75.7406C56.5961 75.7406 55.0512 74.1957 55.0512 72.2922V65.3957C55.0512 63.4922 56.5961 61.9473 58.4996 61.9473C60.4031 61.9473 61.9481 63.4922 61.9481 65.3957V72.2922C61.9481 74.1961 60.4031 75.7406 58.4996 75.7406Z" fill="white"/>
</svg>
